<mxfile host="app.diagrams.net" agent="Mozilla/5.0 (Windows NT 10.0; Win64; x64) AppleWebKit/537.36 (KHTML, like Gecko) Chrome/130.0.0.0 Safari/537.36" version="24.8.2">
  <diagram name="Page-1" id="t9xWpzIiDnhU-qV9zuwO">
    <mxGraphModel dx="1690" dy="455" grid="1" gridSize="10" guides="1" tooltips="1" connect="1" arrows="1" fold="1" page="1" pageScale="1" pageWidth="850" pageHeight="1100" math="0" shadow="0">
      <root>
        <mxCell id="0" />
        <mxCell id="1" parent="0" />
        <mxCell id="gbvmhoW2cTLYdGlF09vs-1" value="User Client" style="rounded=1;whiteSpace=wrap;html=1;" parent="1" vertex="1">
          <mxGeometry x="-190" y="370" width="140" height="180" as="geometry" />
        </mxCell>
        <mxCell id="BRPFg0ip6YD_W-kaKdKR-2" style="edgeStyle=orthogonalEdgeStyle;rounded=0;orthogonalLoop=1;jettySize=auto;html=1;entryX=1;entryY=0.5;entryDx=0;entryDy=0;startArrow=classic;startFill=1;" edge="1" parent="1" source="gbvmhoW2cTLYdGlF09vs-2" target="gbvmhoW2cTLYdGlF09vs-4">
          <mxGeometry relative="1" as="geometry" />
        </mxCell>
        <mxCell id="gbvmhoW2cTLYdGlF09vs-2" value="Enemy Client" style="rounded=1;whiteSpace=wrap;html=1;" parent="1" vertex="1">
          <mxGeometry x="130" y="370" width="140" height="180" as="geometry" />
        </mxCell>
        <mxCell id="BRPFg0ip6YD_W-kaKdKR-1" value="" style="edgeStyle=orthogonalEdgeStyle;rounded=0;orthogonalLoop=1;jettySize=auto;html=1;startArrow=classic;startFill=1;" edge="1" parent="1" source="gbvmhoW2cTLYdGlF09vs-4" target="gbvmhoW2cTLYdGlF09vs-1">
          <mxGeometry relative="1" as="geometry" />
        </mxCell>
        <mxCell id="gbvmhoW2cTLYdGlF09vs-4" value="Server" style="rounded=1;whiteSpace=wrap;html=1;" parent="1" vertex="1">
          <mxGeometry x="-30" y="370" width="140" height="180" as="geometry" />
        </mxCell>
        <mxCell id="gbvmhoW2cTLYdGlF09vs-14" style="edgeStyle=orthogonalEdgeStyle;rounded=0;orthogonalLoop=1;jettySize=auto;html=1;" parent="1" source="gbvmhoW2cTLYdGlF09vs-13" target="gbvmhoW2cTLYdGlF09vs-1" edge="1">
          <mxGeometry relative="1" as="geometry" />
        </mxCell>
        <mxCell id="gbvmhoW2cTLYdGlF09vs-13" value="&lt;div&gt;User&lt;/div&gt;&lt;div&gt;&lt;br&gt;&lt;/div&gt;" style="shape=umlActor;verticalLabelPosition=bottom;verticalAlign=top;html=1;outlineConnect=0;" parent="1" vertex="1">
          <mxGeometry x="-310" y="405" width="60" height="110" as="geometry" />
        </mxCell>
        <mxCell id="gbvmhoW2cTLYdGlF09vs-19" value="Keyboard / Controller" style="text;html=1;align=center;verticalAlign=middle;whiteSpace=wrap;rounded=0;" parent="1" vertex="1">
          <mxGeometry x="270" y="400" width="60" height="30" as="geometry" />
        </mxCell>
        <mxCell id="gbvmhoW2cTLYdGlF09vs-20" value="Keyboard / Controller" style="text;html=1;align=center;verticalAlign=middle;whiteSpace=wrap;rounded=0;" parent="1" vertex="1">
          <mxGeometry x="-250" y="400" width="60" height="30" as="geometry" />
        </mxCell>
        <mxCell id="BRPFg0ip6YD_W-kaKdKR-3" style="edgeStyle=orthogonalEdgeStyle;rounded=0;orthogonalLoop=1;jettySize=auto;html=1;entryX=1;entryY=0.5;entryDx=0;entryDy=0;" edge="1" parent="1" source="-g6jw8xj2JU9sFBbFITN-1" target="gbvmhoW2cTLYdGlF09vs-2">
          <mxGeometry relative="1" as="geometry" />
        </mxCell>
        <mxCell id="-g6jw8xj2JU9sFBbFITN-1" value="&lt;div&gt;Enemy&lt;/div&gt;" style="shape=umlActor;verticalLabelPosition=bottom;verticalAlign=top;html=1;outlineConnect=0;" parent="1" vertex="1">
          <mxGeometry x="330" y="405" width="60" height="110" as="geometry" />
        </mxCell>
      </root>
    </mxGraphModel>
  </diagram>
</mxfile>
